<?xml version="1.0" encoding="UTF-8"?><svg id="pie2" xmlns="http://www.w3.org/2000/svg" viewBox="0 0 400 270"><defs><style>.cls-1{fill:#f4ac20;}.cls-2{fill:#fa6000;}.cls-3{fill:#f78417;}.cls-4{fill:#fff;}.cls-5{fill:#0a86a8;}.cls-6{fill:#067099;}.cls-7{fill:#28a1b8;}.cls-8{fill:#46c1c9;}.cls-9{fill:#7b7d80;}</style></defs><g id="slices-2"><path id="_7.6" class="cls-9" d="M138.42,135.58L67.88,38.5c10.19-7.4,21.48-13.15,33.45-17.04,11.98-3.89,24.49-5.87,37.08-5.87v120Z"/><path id="_7.6-2" class="cls-5" d="M138.42,135.58L25.66,94.54c2.39-6.56,5.35-12.91,8.84-18.96,3.49-6.05,7.51-11.78,12-17.13l91.93,77.13Z"/><path id="_7.6-3" class="cls-6" d="M138.42,135.58L46.49,58.45c3.14-3.74,6.51-7.29,10.09-10.63s7.35-6.45,11.31-9.32l70.53,97.08Z"/><path id="_9.7" class="cls-2" d="M138.42,135.58V15.58c65.83,0,120,54.17,120,120,0,4.19-.22,8.38-.66,12.54l-119.34-12.54Z"/><path id="_1.2" class="cls-3" d="M138.42,135.58l119.34,12.54c-2.5,23.78-12.05,46.28-27.42,64.59-15.37,18.32-35.87,31.63-58.85,38.22l-33.08-115.35Z"/><path id="_.6" class="cls-1" d="M138.42,135.58l33.08,115.35c-10.75,3.08-21.89,4.65-33.08,4.65-21.06,0-41.76-5.55-60-16.08l60-103.92Z"/><path id="_-2" class="cls-8" d="M138.42,135.58l-60,103.92c-12.73-7.35-24.01-16.98-33.26-28.4s-16.33-24.45-20.87-38.44l114.13-37.08Z"/><path id="_-3" class="cls-7" d="M138.42,135.58L24.29,172.66c-3.89-11.98-5.87-24.49-5.87-37.08,0-14,2.45-27.89,7.24-41.04l112.76,41.04Z"/></g><g id="_-4"><g><path class="cls-4" d="M98.29,47.82h-1.32v-8.4c-.32,.3-.73,.61-1.25,.91s-.98,.53-1.39,.68v-1.27c.74-.35,1.38-.77,1.93-1.26s.94-.97,1.17-1.44h.85v10.78Z"/><path class="cls-4" d="M101.51,42.53c0-1.27,.13-2.29,.39-3.06s.65-1.37,1.16-1.79c.52-.42,1.16-.63,1.95-.63,.58,0,1.08,.12,1.52,.35,.44,.23,.79,.57,1.08,1s.5,.97,.67,1.6c.16,.63,.24,1.47,.24,2.54,0,1.26-.13,2.28-.39,3.05-.26,.77-.65,1.37-1.16,1.79-.51,.42-1.17,.63-1.95,.63-1.04,0-1.85-.37-2.44-1.11-.71-.89-1.06-2.35-1.06-4.37Zm1.35,0c0,1.76,.21,2.94,.62,3.52,.41,.58,.92,.88,1.53,.88s1.11-.29,1.53-.88c.41-.59,.62-1.76,.62-3.52s-.21-2.94-.62-3.52c-.41-.58-.93-.87-1.54-.87s-1.09,.26-1.45,.77c-.45,.65-.68,1.86-.68,3.63Z"/><path class="cls-4" d="M109.96,39.66c0-.77,.19-1.42,.58-1.96,.38-.54,.94-.81,1.68-.81,.67,0,1.23,.24,1.67,.72,.44,.48,.66,1.19,.66,2.12s-.22,1.61-.67,2.1c-.45,.49-1,.74-1.65,.74s-1.19-.24-1.62-.73c-.43-.48-.65-1.21-.65-2.19Zm2.29-1.85c-.33,0-.6,.14-.82,.42s-.33,.8-.33,1.56c0,.69,.11,1.17,.33,1.45s.49,.42,.81,.42,.61-.14,.82-.42,.33-.8,.33-1.55c0-.69-.11-1.18-.33-1.46-.22-.28-.49-.42-.82-.42Zm0,10.41l5.87-11.32h1.07l-5.85,11.32h-1.09Zm4.64-2.92c0-.77,.19-1.42,.58-1.96,.38-.54,.95-.8,1.68-.8,.67,0,1.23,.24,1.67,.72,.44,.48,.66,1.19,.66,2.12s-.22,1.61-.67,2.1c-.45,.49-1,.74-1.66,.74s-1.19-.24-1.62-.73c-.43-.49-.65-1.21-.65-2.19Zm2.3-1.85c-.33,0-.61,.14-.82,.42s-.33,.8-.33,1.56c0,.68,.11,1.17,.33,1.45s.49,.42,.81,.42,.61-.14,.83-.42c.22-.28,.33-.8,.33-1.55,0-.69-.11-1.18-.33-1.46s-.49-.42-.82-.42Z"/></g><g><path class="cls-4" d="M195.2,85.73v1.27h-7.1c0-.32,.04-.62,.15-.92,.18-.48,.47-.96,.87-1.43,.4-.47,.97-1.01,1.73-1.63,1.17-.96,1.96-1.71,2.37-2.27,.41-.56,.62-1.09,.62-1.59,0-.52-.19-.96-.56-1.32-.37-.36-.86-.54-1.46-.54-.63,0-1.14,.19-1.52,.57s-.57,.91-.58,1.58l-1.36-.14c.09-1.01,.44-1.78,1.05-2.31,.61-.53,1.42-.79,2.44-.79s1.85,.29,2.45,.86,.9,1.28,.9,2.12c0,.43-.09,.85-.26,1.27s-.47,.85-.88,1.31c-.41,.46-1.08,1.09-2.03,1.89-.79,.66-1.3,1.12-1.52,1.35-.22,.24-.41,.47-.56,.71h5.27Z"/><path class="cls-4" d="M203.31,78.89l-1.31,.1c-.12-.52-.28-.89-.5-1.13-.36-.38-.8-.56-1.32-.56-.42,0-.79,.12-1.11,.35-.42,.3-.74,.74-.98,1.33s-.36,1.41-.37,2.48c.32-.48,.71-.84,1.17-1.08s.94-.35,1.44-.35c.88,0,1.63,.32,2.25,.97,.62,.65,.93,1.48,.93,2.51,0,.67-.15,1.3-.44,1.88-.29,.58-.69,1.02-1.2,1.33s-1.08,.46-1.73,.46c-1.1,0-1.99-.4-2.69-1.21-.69-.81-1.04-2.14-1.04-4,0-2.08,.38-3.58,1.15-4.53,.67-.82,1.57-1.23,2.7-1.23,.84,0,1.54,.24,2.08,.71,.54,.47,.86,1.13,.97,1.96Zm-5.38,4.63c0,.45,.1,.89,.29,1.3,.19,.42,.46,.73,.81,.95,.35,.22,.71,.33,1.09,.33,.56,0,1.04-.22,1.44-.67s.6-1.06,.6-1.83-.2-1.33-.59-1.75c-.4-.43-.89-.64-1.49-.64s-1.1,.21-1.52,.64c-.42,.43-.62,.99-.62,1.68Z"/><path class="cls-4" d="M205.4,87v-1.5h1.5v1.5h-1.5Z"/><path class="cls-4" d="M208.76,77.67v-1.27h6.95v1.03c-.68,.73-1.36,1.69-2.03,2.9-.67,1.21-1.19,2.45-1.56,3.72-.26,.9-.43,1.88-.51,2.95h-1.35c.01-.84,.18-1.87,.5-3.06s.77-2.35,1.37-3.46c.59-1.11,1.22-2.05,1.89-2.81h-5.26Z"/><path class="cls-4" d="M217.12,78.84c0-.77,.19-1.42,.58-1.96s.94-.81,1.68-.81c.67,0,1.23,.24,1.67,.72,.44,.48,.66,1.19,.66,2.12s-.22,1.61-.67,2.1c-.45,.49-1,.74-1.65,.74s-1.19-.24-1.62-.73c-.43-.48-.65-1.21-.65-2.19Zm2.29-1.85c-.33,0-.6,.14-.82,.42-.22,.28-.33,.8-.33,1.56,0,.69,.11,1.17,.33,1.45,.22,.28,.49,.42,.81,.42s.61-.14,.82-.42c.22-.28,.33-.8,.33-1.55,0-.69-.11-1.18-.33-1.46-.22-.28-.49-.42-.82-.42Zm0,10.41l5.87-11.32h1.07l-5.85,11.32h-1.09Zm4.64-2.92c0-.77,.19-1.42,.58-1.96,.39-.54,.95-.8,1.68-.8,.67,0,1.23,.24,1.67,.72,.44,.48,.66,1.19,.66,2.12s-.22,1.61-.67,2.1c-.45,.49-1,.74-1.66,.74s-1.19-.24-1.62-.73c-.43-.49-.65-1.21-.65-2.19Zm2.3-1.85c-.33,0-.61,.14-.82,.42-.22,.28-.33,.8-.33,1.56,0,.68,.11,1.17,.33,1.45s.49,.42,.81,.42,.61-.14,.83-.42c.22-.28,.33-.8,.33-1.55,0-.69-.11-1.18-.33-1.46-.22-.28-.49-.42-.82-.42Z"/></g><g><path class="cls-4" d="M192.24,202h-1.32v-8.4c-.32,.3-.73,.61-1.25,.91-.52,.3-.98,.53-1.39,.68v-1.27c.74-.35,1.38-.77,1.93-1.26s.94-.97,1.17-1.44h.85v10.78Z"/><path class="cls-4" d="M197.5,196.18c-.55-.2-.95-.49-1.22-.86s-.4-.82-.4-1.33c0-.78,.28-1.44,.84-1.97s1.31-.8,2.24-.8,1.69,.27,2.26,.82c.57,.54,.86,1.21,.86,1.99,0,.5-.13,.93-.39,1.3-.26,.37-.66,.65-1.19,.85,.66,.21,1.16,.56,1.5,1.04,.34,.48,.52,1.05,.52,1.71,0,.92-.33,1.69-.97,2.31s-1.5,.94-2.56,.94-1.91-.31-2.56-.94c-.65-.63-.97-1.41-.97-2.35,0-.7,.18-1.28,.53-1.75,.35-.47,.86-.79,1.51-.96Zm-.69,2.72c0,.38,.09,.74,.27,1.09,.18,.35,.44,.62,.79,.82,.35,.19,.73,.29,1.13,.29,.63,0,1.15-.2,1.56-.61s.62-.92,.62-1.55-.21-1.16-.63-1.57c-.42-.42-.95-.62-1.59-.62s-1.13,.21-1.54,.62c-.41,.41-.61,.92-.61,1.54Zm.42-4.96c0,.51,.16,.92,.49,1.25s.75,.48,1.27,.48,.92-.16,1.25-.48c.33-.32,.49-.71,.49-1.18s-.17-.89-.5-1.22c-.33-.33-.75-.49-1.25-.49s-.92,.16-1.25,.48-.5,.71-.5,1.16Z"/><path class="cls-4" d="M204.4,202v-1.5h1.5v1.5h-1.5Z"/><path class="cls-4" d="M207.87,199.52l1.27-.12c.11,.6,.31,1.03,.62,1.3s.69,.4,1.17,.4c.41,0,.76-.09,1.07-.28,.3-.19,.56-.43,.75-.74,.2-.31,.36-.73,.49-1.26s.2-1.06,.2-1.61c0-.06,0-.15,0-.26-.26,.42-.62,.76-1.08,1.02-.46,.26-.95,.39-1.48,.39-.89,0-1.64-.32-2.26-.97s-.92-1.49-.92-2.55,.32-1.96,.96-2.63c.64-.66,1.45-1,2.41-1,.7,0,1.34,.19,1.92,.56,.58,.38,1.02,.91,1.32,1.61,.3,.7,.45,1.7,.45,3.02s-.15,2.46-.45,3.28c-.3,.81-.74,1.43-1.33,1.86-.59,.42-1.28,.64-2.07,.64-.84,0-1.53-.23-2.06-.7-.53-.47-.85-1.12-.96-1.97Zm5.4-4.74c0-.76-.2-1.36-.6-1.8-.4-.44-.89-.67-1.45-.67s-1.1,.24-1.53,.72-.65,1.1-.65,1.86c0,.68,.21,1.24,.62,1.67,.41,.43,.92,.64,1.53,.64s1.11-.21,1.51-.64c.39-.43,.59-1.02,.59-1.78Z"/><path class="cls-4" d="M216.12,193.84c0-.77,.19-1.42,.58-1.96s.94-.81,1.68-.81c.67,0,1.23,.24,1.67,.72,.44,.48,.66,1.19,.66,2.12s-.22,1.61-.67,2.1c-.45,.49-1,.74-1.65,.74s-1.19-.24-1.62-.73c-.43-.48-.65-1.21-.65-2.19Zm2.29-1.85c-.33,0-.6,.14-.82,.42-.22,.28-.33,.8-.33,1.56,0,.69,.11,1.17,.33,1.45,.22,.28,.49,.42,.81,.42s.61-.14,.82-.42c.22-.28,.33-.8,.33-1.55,0-.69-.11-1.18-.33-1.46-.22-.28-.49-.42-.82-.42Zm0,10.41l5.87-11.32h1.07l-5.85,11.32h-1.09Zm4.64-2.92c0-.77,.19-1.42,.58-1.96,.39-.54,.95-.8,1.68-.8,.67,0,1.23,.24,1.67,.72,.44,.48,.66,1.19,.66,2.12s-.22,1.61-.67,2.1c-.45,.49-1,.74-1.66,.74s-1.19-.24-1.62-.73c-.43-.49-.65-1.21-.65-2.19Zm2.3-1.85c-.33,0-.61,.14-.82,.42-.22,.28-.33,.8-.33,1.56,0,.68,.11,1.17,.33,1.45s.49,.42,.81,.42,.61-.14,.83-.42c.22-.28,.33-.8,.33-1.55,0-.69-.11-1.18-.33-1.46-.22-.28-.49-.42-.82-.42Z"/></g><g><path class="cls-4" d="M114.24,239h-1.32v-8.4c-.32,.3-.73,.61-1.25,.91-.52,.3-.98,.53-1.39,.68v-1.27c.74-.35,1.38-.77,1.93-1.26s.94-.97,1.17-1.44h.85v10.78Z"/><path class="cls-4" d="M124.4,237.73v1.27h-7.1c0-.32,.04-.62,.15-.92,.18-.48,.47-.96,.87-1.43,.4-.47,.97-1.01,1.73-1.63,1.17-.96,1.96-1.71,2.37-2.27,.41-.56,.62-1.09,.62-1.59,0-.52-.19-.96-.56-1.32-.37-.36-.86-.54-1.46-.54-.63,0-1.14,.19-1.52,.57s-.57,.91-.58,1.58l-1.36-.14c.09-1.01,.44-1.78,1.05-2.31,.61-.53,1.42-.79,2.44-.79s1.85,.29,2.45,.86,.9,1.28,.9,2.12c0,.43-.09,.85-.26,1.27s-.47,.85-.88,1.31c-.41,.46-1.08,1.09-2.03,1.89-.79,.66-1.3,1.12-1.52,1.35-.22,.24-.41,.47-.56,.71h5.27Z"/><path class="cls-4" d="M126.4,239v-1.5h1.5v1.5h-1.5Z"/><path class="cls-4" d="M131.71,233.18c-.55-.2-.95-.49-1.22-.86s-.4-.82-.4-1.33c0-.78,.28-1.44,.84-1.97s1.31-.8,2.24-.8,1.69,.27,2.26,.82c.57,.54,.86,1.21,.86,1.99,0,.5-.13,.93-.39,1.3-.26,.37-.66,.65-1.19,.85,.66,.21,1.16,.56,1.51,1.04,.34,.48,.52,1.05,.52,1.71,0,.92-.32,1.69-.97,2.31s-1.5,.94-2.56,.94-1.91-.31-2.56-.94c-.65-.63-.97-1.41-.97-2.35,0-.7,.18-1.28,.53-1.75,.35-.47,.86-.79,1.51-.96Zm-.69,2.72c0,.38,.09,.74,.27,1.09,.18,.35,.44,.62,.79,.82,.35,.19,.73,.29,1.14,.29,.63,0,1.15-.2,1.56-.61s.62-.92,.62-1.55-.21-1.16-.63-1.57c-.42-.42-.95-.62-1.59-.62s-1.13,.21-1.54,.62c-.41,.41-.61,.92-.61,1.54Zm.42-4.96c0,.51,.16,.92,.49,1.25s.75,.48,1.27,.48,.92-.16,1.25-.48c.32-.32,.49-.71,.49-1.18s-.17-.89-.5-1.22c-.33-.33-.75-.49-1.25-.49s-.92,.16-1.25,.48-.5,.71-.5,1.16Z"/><path class="cls-4" d="M138.12,230.84c0-.77,.19-1.42,.58-1.96s.94-.81,1.68-.81c.67,0,1.23,.24,1.67,.72,.44,.48,.66,1.19,.66,2.12s-.22,1.61-.67,2.1c-.45,.49-1,.74-1.65,.74s-1.19-.24-1.62-.73c-.43-.48-.65-1.21-.65-2.19Zm2.29-1.85c-.33,0-.6,.14-.82,.42-.22,.28-.33,.8-.33,1.56,0,.69,.11,1.17,.33,1.45,.22,.28,.49,.42,.81,.42s.61-.14,.82-.42c.22-.28,.33-.8,.33-1.55,0-.69-.11-1.18-.33-1.46-.22-.28-.49-.42-.82-.42Zm0,10.41l5.87-11.32h1.07l-5.85,11.32h-1.09Zm4.64-2.92c0-.77,.19-1.42,.58-1.96,.39-.54,.95-.8,1.68-.8,.67,0,1.23,.24,1.67,.72,.44,.48,.66,1.19,.66,2.12s-.22,1.61-.67,2.1c-.45,.49-1,.74-1.66,.74s-1.19-.24-1.62-.73c-.43-.49-.65-1.21-.65-2.19Zm2.3-1.85c-.33,0-.61,.14-.82,.42-.22,.28-.33,.8-.33,1.56,0,.68,.11,1.17,.33,1.45s.49,.42,.81,.42,.61-.14,.83-.42c.22-.28,.33-.8,.33-1.55,0-.69-.11-1.18-.33-1.46-.22-.28-.49-.42-.82-.42Z"/></g><g><path class="cls-4" d="M51.4,202.21h-1.32v-8.4c-.32,.3-.73,.61-1.25,.91-.52,.3-.98,.53-1.39,.68v-1.27c.74-.35,1.38-.77,1.93-1.26s.94-.97,1.17-1.44h.85v10.78Z"/><path class="cls-4" d="M58.48,202.21h-1.32v-8.4c-.32,.3-.73,.61-1.25,.91-.52,.3-.98,.53-1.39,.68v-1.27c.74-.35,1.38-.77,1.93-1.26s.94-.97,1.17-1.44h.85v10.78Z"/><path class="cls-4" d="M62.45,202.21v-1.5h1.5v1.5h-1.5Z"/><path class="cls-4" d="M65.81,192.88v-1.27h6.95v1.03c-.68,.73-1.36,1.69-2.03,2.9-.67,1.21-1.19,2.45-1.56,3.72-.26,.9-.43,1.88-.5,2.95h-1.36c.01-.84,.18-1.87,.5-3.06s.77-2.35,1.37-3.46c.59-1.11,1.22-2.05,1.89-2.81h-5.26Z"/><path class="cls-4" d="M74.17,194.05c0-.77,.19-1.42,.58-1.96s.95-.81,1.68-.81c.67,0,1.23,.24,1.67,.72,.44,.48,.66,1.19,.66,2.12s-.22,1.61-.67,2.1c-.45,.49-1,.74-1.65,.74s-1.19-.24-1.62-.73c-.43-.48-.65-1.21-.65-2.19Zm2.29-1.85c-.33,0-.6,.14-.82,.42-.22,.28-.33,.8-.33,1.56,0,.69,.11,1.17,.33,1.45s.49,.42,.81,.42,.61-.14,.82-.42c.22-.28,.33-.8,.33-1.55,0-.69-.11-1.18-.33-1.46s-.49-.42-.82-.42Zm0,10.41l5.87-11.32h1.07l-5.85,11.32h-1.09Zm4.64-2.92c0-.77,.19-1.42,.58-1.96,.39-.54,.95-.8,1.68-.8,.67,0,1.23,.24,1.67,.72,.44,.48,.66,1.19,.66,2.12s-.22,1.61-.67,2.1c-.45,.49-1,.74-1.66,.74s-1.19-.24-1.62-.73c-.43-.49-.65-1.21-.65-2.19Zm2.3-1.85c-.33,0-.61,.14-.82,.42-.22,.28-.33,.8-.33,1.56,0,.68,.11,1.17,.33,1.45s.49,.42,.81,.42,.61-.14,.83-.42c.22-.28,.33-.8,.33-1.55,0-.69-.11-1.18-.33-1.46s-.49-.42-.82-.42Z"/></g><g><path class="cls-4" d="M34.7,140.21h-1.32v-8.4c-.32,.3-.73,.61-1.25,.91-.52,.3-.98,.53-1.39,.68v-1.27c.74-.35,1.38-.77,1.93-1.26s.94-.97,1.17-1.44h.85v10.78Z"/><path class="cls-4" d="M37.93,134.91c0-1.27,.13-2.29,.39-3.06,.26-.77,.65-1.37,1.16-1.79,.52-.42,1.16-.63,1.95-.63,.58,0,1.08,.12,1.52,.35,.43,.23,.79,.57,1.08,1s.5,.97,.67,1.6,.24,1.47,.24,2.54c0,1.26-.13,2.28-.39,3.05-.26,.77-.65,1.37-1.16,1.79-.51,.42-1.17,.63-1.95,.63-1.04,0-1.85-.37-2.44-1.11-.71-.89-1.06-2.35-1.06-4.37Zm1.35,0c0,1.76,.21,2.94,.62,3.52,.41,.58,.92,.88,1.53,.88s1.11-.29,1.53-.88c.41-.59,.62-1.76,.62-3.52s-.21-2.94-.62-3.52c-.41-.58-.93-.87-1.54-.87s-1.09,.26-1.45,.77c-.45,.65-.68,1.86-.68,3.63Z"/><path class="cls-4" d="M46.86,140.21v-1.5h1.5v1.5h-1.5Z"/><path class="cls-4" d="M50.13,137.4l1.38-.12c.1,.67,.34,1.18,.71,1.52,.37,.34,.82,.51,1.35,.51,.63,0,1.17-.24,1.61-.72s.66-1.11,.66-1.9-.21-1.35-.63-1.78c-.42-.43-.98-.65-1.66-.65-.42,0-.81,.1-1.15,.29s-.61,.44-.81,.75l-1.24-.16,1.04-5.52h5.34v1.26h-4.29l-.58,2.89c.64-.45,1.32-.67,2.03-.67,.94,0,1.73,.32,2.37,.97s.97,1.48,.97,2.5-.28,1.81-.85,2.52c-.69,.87-1.63,1.3-2.82,1.3-.98,0-1.77-.27-2.39-.82-.62-.55-.97-1.27-1.06-2.18Z"/><path class="cls-4" d="M58.58,132.05c0-.77,.19-1.42,.58-1.96s.94-.81,1.68-.81c.67,0,1.23,.24,1.67,.72,.44,.48,.66,1.19,.66,2.12s-.22,1.61-.67,2.1c-.45,.49-1,.74-1.65,.74s-1.19-.24-1.62-.73c-.43-.48-.65-1.21-.65-2.19Zm2.29-1.85c-.33,0-.6,.14-.82,.42-.22,.28-.33,.8-.33,1.56,0,.69,.11,1.17,.33,1.45s.49,.42,.81,.42,.61-.14,.82-.42c.22-.28,.33-.8,.33-1.55,0-.69-.11-1.18-.33-1.46s-.49-.42-.82-.42Zm0,10.41l5.87-11.32h1.07l-5.85,11.32h-1.09Zm4.64-2.92c0-.77,.19-1.42,.58-1.96,.39-.54,.95-.8,1.68-.8,.67,0,1.23,.24,1.67,.72,.44,.48,.66,1.19,.66,2.12s-.22,1.61-.67,2.1c-.45,.49-1,.74-1.66,.74s-1.19-.24-1.62-.73c-.43-.49-.65-1.21-.65-2.19Zm2.3-1.85c-.33,0-.61,.14-.82,.42-.22,.28-.33,.8-.33,1.56,0,.68,.11,1.17,.33,1.45s.49,.42,.81,.42,.61-.14,.83-.42c.22-.28,.33-.8,.33-1.55,0-.69-.11-1.18-.33-1.46s-.49-.42-.82-.42Z"/></g><g><path class="cls-4" d="M39.66,91.8l1.27-.12c.11,.6,.31,1.03,.62,1.3s.69,.4,1.17,.4c.41,0,.76-.09,1.07-.28,.3-.19,.56-.43,.75-.74,.2-.31,.36-.73,.49-1.26s.2-1.06,.2-1.61c0-.06,0-.15,0-.26-.26,.42-.62,.76-1.08,1.02-.46,.26-.95,.39-1.48,.39-.89,0-1.64-.32-2.26-.97s-.92-1.49-.92-2.55,.32-1.97,.96-2.63c.64-.66,1.45-1,2.41-1,.7,0,1.34,.19,1.92,.56,.58,.38,1.02,.91,1.32,1.61,.3,.7,.45,1.7,.45,3.02s-.15,2.46-.45,3.28c-.3,.81-.74,1.43-1.33,1.86-.59,.42-1.28,.64-2.07,.64-.84,0-1.53-.23-2.06-.7-.53-.47-.85-1.12-.96-1.97Zm5.4-4.74c0-.76-.2-1.36-.6-1.8-.4-.44-.89-.67-1.45-.67s-1.1,.24-1.53,.72-.65,1.1-.65,1.86c0,.68,.21,1.24,.62,1.67,.41,.43,.92,.64,1.53,.64s1.11-.21,1.51-.64c.39-.43,.59-1.02,.59-1.78Z"/><path class="cls-4" d="M48.39,94.28v-1.5h1.5v1.5h-1.5Z"/><path class="cls-4" d="M55.9,94.28v-2.57h-4.66v-1.21l4.9-6.96h1.08v6.96h1.45v1.21h-1.45v2.57h-1.32Zm0-3.78v-4.84l-3.36,4.84h3.36Z"/><path class="cls-4" d="M60.11,86.12c0-.77,.19-1.42,.58-1.96s.95-.81,1.68-.81c.67,0,1.23,.24,1.67,.72,.44,.48,.66,1.19,.66,2.12s-.22,1.61-.67,2.1c-.45,.49-1,.74-1.65,.74s-1.19-.24-1.62-.73c-.43-.48-.65-1.21-.65-2.19Zm2.29-1.85c-.33,0-.6,.14-.82,.42-.22,.28-.33,.8-.33,1.56,0,.69,.11,1.17,.33,1.45s.49,.42,.81,.42,.61-.14,.82-.42c.22-.28,.33-.8,.33-1.55,0-.69-.11-1.18-.33-1.46s-.49-.42-.82-.42Zm0,10.41l5.87-11.32h1.07l-5.85,11.32h-1.09Zm4.64-2.92c0-.77,.19-1.42,.58-1.96,.39-.54,.95-.8,1.68-.8,.67,0,1.23,.24,1.67,.72,.44,.48,.66,1.19,.66,2.12s-.22,1.61-.67,2.1c-.45,.49-1,.74-1.66,.74s-1.19-.24-1.62-.73c-.43-.49-.65-1.21-.65-2.19Zm2.3-1.85c-.33,0-.61,.14-.82,.42-.22,.28-.33,.8-.33,1.56,0,.68,.11,1.17,.33,1.45s.49,.42,.81,.42,.61-.14,.83-.42c.22-.28,.33-.8,.33-1.55,0-.69-.11-1.18-.33-1.46s-.49-.42-.82-.42Z"/></g><g><path class="cls-4" d="M64.39,68.57v-2.57h-4.66v-1.21l4.9-6.96h1.08v6.96h1.45v1.21h-1.45v2.57h-1.32Zm0-3.78v-4.84l-3.36,4.84h3.36Z"/><path class="cls-4" d="M68.61,60.41c0-.77,.19-1.42,.58-1.96s.94-.81,1.68-.81c.67,0,1.23,.24,1.67,.72,.44,.48,.66,1.19,.66,2.12s-.22,1.61-.67,2.1c-.45,.49-1,.74-1.65,.74s-1.19-.24-1.62-.73c-.43-.48-.65-1.21-.65-2.19Zm2.29-1.85c-.33,0-.6,.14-.82,.42-.22,.28-.33,.8-.33,1.56,0,.69,.11,1.17,.33,1.45s.49,.42,.81,.42,.61-.14,.82-.42c.22-.28,.33-.8,.33-1.55,0-.69-.11-1.18-.33-1.46s-.49-.42-.82-.42Zm0,10.41l5.87-11.32h1.07l-5.85,11.32h-1.09Zm4.64-2.92c0-.77,.19-1.42,.58-1.96,.39-.54,.95-.8,1.68-.8,.67,0,1.23,.24,1.67,.72,.44,.48,.66,1.19,.66,2.12s-.22,1.61-.67,2.1c-.45,.49-1,.74-1.66,.74s-1.19-.24-1.62-.73c-.43-.49-.65-1.21-.65-2.19Zm2.3-1.85c-.33,0-.61,.14-.82,.42-.22,.28-.33,.8-.33,1.56,0,.68,.11,1.17,.33,1.45s.49,.42,.81,.42,.61-.14,.83-.42c.22-.28,.33-.8,.33-1.55,0-.69-.11-1.18-.33-1.46s-.49-.42-.82-.42Z"/></g></g><g id="_例"><g id="India_Nigeria_Taiwan_Indonesia_United_States_Philippines_其他"><path d="M294.21,46.02h2.17v5.82c0,.92,.03,1.52,.08,1.79,.09,.44,.31,.79,.66,1.06,.35,.27,.83,.4,1.43,.4s1.08-.13,1.39-.38,.5-.56,.56-.93,.1-.97,.1-1.82v-5.94h2.17v5.64c0,1.29-.06,2.2-.18,2.73s-.33,.98-.65,1.35c-.31,.37-.74,.66-1.26,.88-.53,.22-1.21,.33-2.06,.33-1.03,0-1.8-.12-2.33-.35-.53-.24-.95-.54-1.26-.92-.31-.38-.51-.78-.61-1.19-.14-.62-.21-1.52-.21-2.72v-5.73Z"/><path d="M311.97,56.75h-2.06v-3.97c0-.84-.04-1.38-.13-1.63-.09-.25-.23-.44-.43-.57-.2-.14-.44-.21-.71-.21-.36,0-.68,.1-.96,.29s-.48,.45-.58,.78c-.1,.32-.16,.92-.16,1.79v3.52h-2.06v-7.78h1.91v1.14c.68-.88,1.53-1.32,2.56-1.32,.45,0,.87,.08,1.25,.25,.38,.16,.66,.37,.85,.63,.19,.25,.33,.54,.4,.86,.08,.32,.11,.78,.11,1.38v4.83Z"/><path d="M313.9,47.92v-1.9h2.06v1.9h-2.06Zm0,8.83v-7.78h2.06v7.78h-2.06Z"/><path d="M321.49,48.98v1.64h-1.41v3.13c0,.63,.01,1,.04,1.11,.03,.11,.09,.19,.18,.26,.09,.07,.21,.1,.35,.1,.19,0,.47-.07,.83-.2l.18,1.6c-.48,.21-1.02,.31-1.63,.31-.37,0-.71-.06-1-.19-.3-.12-.52-.29-.66-.48-.14-.2-.24-.47-.29-.8-.04-.24-.07-.72-.07-1.45v-3.39h-.95v-1.64h.95v-1.55l2.07-1.2v2.75h1.41Z"/><path d="M327.27,54.28l2.05,.34c-.26,.75-.68,1.32-1.25,1.72-.57,.39-1.28,.59-2.13,.59-1.35,0-2.35-.44-3-1.33-.51-.71-.77-1.6-.77-2.68,0-1.29,.34-2.3,1.01-3.03,.67-.73,1.53-1.09,2.56-1.09,1.16,0,2.07,.38,2.74,1.15s.99,1.93,.96,3.51h-5.16c.01,.61,.18,1.09,.5,1.42,.32,.34,.71,.51,1.19,.51,.32,0,.59-.09,.81-.26s.39-.46,.5-.85Zm.12-2.08c-.01-.6-.17-1.05-.46-1.36s-.65-.47-1.07-.47c-.45,0-.82,.16-1.11,.49s-.44,.77-.43,1.33h3.08Z"/><path d="M338.09,56.75h-1.91v-1.14c-.32,.44-.69,.78-1.12,.99-.43,.22-.87,.33-1.31,.33-.89,0-1.66-.36-2.3-1.08-.64-.72-.96-1.73-.96-3.01s.31-2.32,.93-3.01,1.4-1.03,2.35-1.03c.87,0,1.62,.36,2.26,1.08v-3.87h2.06v10.74Zm-5.49-4.06c0,.83,.12,1.43,.34,1.8,.33,.54,.8,.81,1.39,.81,.47,0,.88-.2,1.21-.6,.33-.4,.5-1,.5-1.81,0-.89-.16-1.54-.48-1.93-.32-.39-.73-.59-1.24-.59s-.9,.19-1.23,.58c-.33,.39-.5,.97-.5,1.74Z"/><path d="M343.45,53.26l2.11-.21c.13,.71,.38,1.23,.77,1.56,.39,.33,.91,.5,1.57,.5,.7,0,1.22-.15,1.58-.44,.35-.29,.53-.64,.53-1.04,0-.25-.07-.47-.22-.65-.15-.18-.41-.33-.78-.46-.25-.09-.83-.24-1.74-.47-1.16-.29-1.98-.64-2.45-1.06-.66-.59-.99-1.31-.99-2.16,0-.55,.16-1.06,.47-1.53,.31-.48,.76-.84,1.34-1.09,.58-.25,1.29-.37,2.11-.37,1.35,0,2.36,.3,3.04,.89,.68,.59,1.04,1.38,1.07,2.37l-2.17,.1c-.09-.55-.29-.95-.6-1.19-.31-.24-.76-.36-1.37-.36s-1.12,.13-1.48,.39c-.23,.17-.34,.39-.34,.67,0,.25,.11,.47,.32,.65,.27,.23,.94,.47,1.99,.72s1.83,.51,2.34,.77c.51,.27,.9,.63,1.19,1.09,.29,.46,.43,1.03,.43,1.71,0,.62-.17,1.19-.51,1.73s-.83,.94-1.45,1.2c-.62,.26-1.4,.39-2.34,.39-1.36,0-2.4-.31-3.13-.94-.73-.63-1.16-1.54-1.3-2.74Z"/><path d="M357.41,48.98v1.64h-1.41v3.13c0,.63,.01,1,.04,1.11,.03,.11,.09,.19,.18,.26,.09,.07,.21,.1,.35,.1,.19,0,.47-.07,.83-.2l.18,1.6c-.48,.21-1.02,.31-1.63,.31-.37,0-.71-.06-1-.19-.3-.12-.52-.29-.66-.48-.14-.2-.24-.47-.29-.8-.04-.24-.07-.72-.07-1.45v-3.39h-.95v-1.64h.95v-1.55l2.07-1.2v2.75h1.41Z"/><path d="M360.23,51.35l-1.87-.34c.21-.75,.57-1.31,1.08-1.67s1.27-.54,2.29-.54c.92,0,1.6,.11,2.05,.33s.77,.49,.95,.83c.18,.33,.28,.95,.28,1.84l-.02,2.4c0,.68,.03,1.19,.1,1.51,.07,.33,.19,.67,.37,1.04h-2.04c-.05-.14-.12-.34-.2-.61-.04-.12-.06-.2-.07-.24-.35,.34-.73,.6-1.13,.77-.4,.17-.83,.26-1.28,.26-.8,0-1.43-.22-1.89-.65-.46-.43-.69-.98-.69-1.65,0-.44,.1-.83,.31-1.18,.21-.34,.5-.61,.88-.79,.38-.18,.92-.34,1.64-.48,.96-.18,1.63-.35,2-.51v-.21c0-.4-.1-.68-.29-.85-.2-.17-.56-.25-1.11-.25-.37,0-.65,.07-.86,.22s-.37,.4-.5,.76Zm2.75,1.67c-.26,.09-.68,.19-1.25,.31s-.94,.24-1.12,.36c-.27,.19-.4,.43-.4,.73s.11,.54,.32,.75,.49,.31,.82,.31c.37,0,.73-.12,1.06-.37,.25-.19,.41-.41,.49-.68,.05-.18,.08-.51,.08-1v-.41Z"/><path d="M370.45,48.98v1.64h-1.41v3.13c0,.63,.01,1,.04,1.11,.03,.11,.09,.19,.18,.26,.09,.07,.21,.1,.35,.1,.19,0,.47-.07,.83-.2l.18,1.6c-.48,.21-1.02,.31-1.63,.31-.37,0-.71-.06-1-.19-.3-.12-.52-.29-.66-.48-.14-.2-.24-.47-.29-.8-.04-.24-.07-.72-.07-1.45v-3.39h-.95v-1.64h.95v-1.55l2.07-1.2v2.75h1.41Z"/><path d="M376.23,54.28l2.05,.34c-.26,.75-.68,1.32-1.25,1.72-.57,.39-1.28,.59-2.13,.59-1.35,0-2.35-.44-3-1.33-.51-.71-.77-1.6-.77-2.68,0-1.29,.34-2.3,1.01-3.03,.67-.73,1.53-1.09,2.56-1.09,1.16,0,2.07,.38,2.74,1.15s.99,1.93,.96,3.51h-5.16c.01,.61,.18,1.09,.5,1.42,.32,.34,.71,.51,1.19,.51,.32,0,.59-.09,.81-.26s.39-.46,.5-.85Zm.12-2.08c-.01-.6-.17-1.05-.46-1.36s-.65-.47-1.07-.47c-.45,0-.82,.16-1.11,.49s-.44,.77-.43,1.33h3.08Z"/><path d="M379.19,54.53l2.07-.31c.09,.4,.27,.7,.53,.91s.64,.31,1.13,.31c.53,0,.93-.1,1.2-.29,.18-.14,.27-.32,.27-.55,0-.16-.05-.29-.15-.39-.1-.1-.33-.19-.69-.27-1.66-.37-2.71-.7-3.16-1-.62-.42-.92-1-.92-1.75,0-.67,.27-1.24,.8-1.7s1.36-.69,2.48-.69,1.86,.17,2.37,.52,.87,.86,1.07,1.54l-1.94,.36c-.08-.3-.24-.53-.47-.7-.23-.16-.56-.24-.99-.24-.54,0-.93,.08-1.16,.23-.16,.11-.23,.25-.23,.42,0,.15,.07,.27,.21,.37,.19,.14,.83,.33,1.92,.58,1.1,.25,1.86,.55,2.3,.92,.43,.37,.64,.88,.64,1.53,0,.71-.3,1.33-.89,1.84s-1.48,.77-2.64,.77c-1.06,0-1.9-.21-2.52-.64-.62-.43-1.02-1.01-1.21-1.75Z"/><path d="M298.1,70.02h2.16v6.8c0,.89-.08,1.57-.23,2.05-.21,.62-.59,1.13-1.14,1.5-.55,.38-1.28,.57-2.18,.57-1.06,0-1.88-.3-2.45-.89-.57-.59-.86-1.46-.87-2.61l2.04-.23c.02,.62,.11,1.05,.27,1.3,.23,.39,.59,.58,1.07,.58s.82-.14,1.03-.41c.2-.28,.3-.85,.3-1.72v-6.94Z"/><path d="M303.94,75.35l-1.87-.34c.21-.75,.57-1.31,1.08-1.67s1.27-.54,2.29-.54c.92,0,1.6,.11,2.05,.33s.77,.49,.95,.83c.18,.33,.28,.95,.28,1.84l-.02,2.4c0,.68,.03,1.19,.1,1.51,.07,.33,.19,.67,.37,1.04h-2.04c-.05-.14-.12-.34-.2-.61-.04-.12-.06-.2-.07-.24-.35,.34-.73,.6-1.13,.77-.4,.17-.83,.26-1.28,.26-.8,0-1.43-.22-1.89-.65-.46-.43-.69-.98-.69-1.65,0-.44,.1-.83,.31-1.18,.21-.34,.5-.61,.88-.79,.38-.18,.92-.34,1.64-.48,.96-.18,1.63-.35,2-.51v-.21c0-.4-.1-.68-.29-.85-.2-.17-.56-.25-1.11-.25-.37,0-.65,.07-.86,.22s-.37,.4-.5,.76Zm2.75,1.67c-.26,.09-.68,.19-1.25,.31s-.94,.24-1.12,.36c-.27,.19-.4,.43-.4,.73s.11,.54,.32,.75,.49,.31,.82,.31c.37,0,.73-.12,1.06-.37,.25-.19,.41-.41,.49-.68,.05-.18,.08-.51,.08-1v-.41Z"/><path d="M310.53,72.98h1.92v1.14c.25-.39,.59-.71,1.01-.95,.43-.24,.9-.37,1.41-.37,.9,0,1.67,.35,2.3,1.06s.94,1.69,.94,2.96-.32,2.31-.95,3.03c-.64,.72-1.4,1.08-2.31,1.08-.43,0-.82-.09-1.17-.26-.35-.17-.72-.46-1.1-.88v3.92h-2.06v-10.74Zm2.04,3.76c0,.87,.17,1.52,.52,1.94,.35,.42,.77,.63,1.27,.63s.88-.19,1.19-.57,.48-1.01,.48-1.89c0-.82-.16-1.42-.49-1.82s-.73-.59-1.22-.59-.92,.19-1.25,.58c-.33,.39-.5,.96-.5,1.73Z"/><path d="M321.14,75.35l-1.87-.34c.21-.75,.57-1.31,1.08-1.67s1.27-.54,2.29-.54c.92,0,1.6,.11,2.05,.33s.77,.49,.95,.83c.18,.33,.28,.95,.28,1.84l-.02,2.4c0,.68,.03,1.19,.1,1.51,.07,.33,.19,.67,.37,1.04h-2.04c-.05-.14-.12-.34-.2-.61-.04-.12-.06-.2-.07-.24-.35,.34-.73,.6-1.13,.77-.4,.17-.83,.26-1.28,.26-.8,0-1.43-.22-1.89-.65-.46-.43-.69-.98-.69-1.65,0-.44,.1-.83,.31-1.18,.21-.34,.5-.61,.88-.79,.38-.18,.92-.34,1.64-.48,.96-.18,1.63-.35,2-.51v-.21c0-.4-.1-.68-.29-.85-.2-.17-.56-.25-1.11-.25-.37,0-.65,.07-.86,.22s-.37,.4-.5,.76Zm2.75,1.67c-.26,.09-.68,.19-1.25,.31s-.94,.24-1.12,.36c-.27,.19-.4,.43-.4,.73s.11,.54,.32,.75,.49,.31,.82,.31c.37,0,.73-.12,1.06-.37,.25-.19,.41-.41,.49-.68,.05-.18,.08-.51,.08-1v-.41Z"/><path d="M334.87,80.75h-2.06v-3.97c0-.84-.04-1.38-.13-1.63-.09-.25-.23-.44-.43-.57-.2-.14-.44-.21-.71-.21-.36,0-.68,.1-.96,.29s-.48,.45-.58,.78c-.1,.32-.16,.92-.16,1.79v3.52h-2.06v-7.78h1.91v1.14c.68-.88,1.53-1.32,2.56-1.32,.45,0,.87,.08,1.25,.25,.38,.16,.66,.37,.85,.63,.19,.25,.33,.54,.4,.86,.08,.32,.11,.78,.11,1.38v4.83Z"/><path d="M296.64,104.75v-8.92h-3.19v-1.82h8.53v1.82h-3.18v8.92h-2.17Z"/><path d="M303.65,99.35l-1.87-.34c.21-.75,.57-1.31,1.08-1.67s1.27-.54,2.29-.54c.92,0,1.6,.11,2.05,.33s.77,.49,.95,.83c.18,.33,.28,.95,.28,1.84l-.02,2.4c0,.68,.03,1.19,.1,1.51,.07,.33,.19,.67,.37,1.04h-2.04c-.05-.14-.12-.34-.2-.61-.04-.12-.06-.2-.07-.24-.35,.34-.73,.6-1.13,.77-.4,.17-.83,.26-1.28,.26-.8,0-1.43-.22-1.89-.65-.46-.43-.69-.98-.69-1.65,0-.44,.1-.83,.31-1.18,.21-.34,.5-.61,.88-.79,.38-.18,.92-.34,1.64-.48,.96-.18,1.63-.35,2-.51v-.21c0-.4-.1-.68-.29-.85-.2-.17-.56-.25-1.11-.25-.37,0-.65,.07-.86,.22s-.37,.4-.5,.76Zm2.75,1.67c-.26,.09-.68,.19-1.25,.31s-.94,.24-1.12,.36c-.27,.19-.4,.43-.4,.73s.11,.54,.32,.75,.49,.31,.82,.31c.37,0,.73-.12,1.06-.37,.25-.19,.41-.41,.49-.68,.05-.18,.08-.51,.08-1v-.41Z"/><path d="M310.3,95.92v-1.9h2.06v1.9h-2.06Zm0,8.83v-7.78h2.06v7.78h-2.06Z"/><path d="M315.77,104.75l-2.46-7.78h2l1.46,5.1,1.34-5.1h1.98l1.3,5.1,1.49-5.1h2.03l-2.5,7.78h-1.98l-1.34-5-1.32,5h-2Z"/><path d="M327.37,99.35l-1.87-.34c.21-.75,.57-1.31,1.08-1.67s1.27-.54,2.29-.54c.92,0,1.6,.11,2.05,.33s.77,.49,.95,.83c.18,.33,.28,.95,.28,1.84l-.02,2.4c0,.68,.03,1.19,.1,1.51,.07,.33,.19,.67,.37,1.04h-2.04c-.05-.14-.12-.34-.2-.61-.04-.12-.06-.2-.07-.24-.35,.34-.73,.6-1.13,.77-.4,.17-.83,.26-1.28,.26-.8,0-1.43-.22-1.89-.65-.46-.43-.69-.98-.69-1.65,0-.44,.1-.83,.31-1.18,.21-.34,.5-.61,.88-.79,.38-.18,.92-.34,1.64-.48,.96-.18,1.63-.35,2-.51v-.21c0-.4-.1-.68-.29-.85-.2-.17-.56-.25-1.11-.25-.37,0-.65,.07-.86,.22s-.37,.4-.5,.76Zm2.75,1.67c-.26,.09-.68,.19-1.25,.31s-.94,.24-1.12,.36c-.27,.19-.4,.43-.4,.73s.11,.54,.32,.75,.49,.31,.82,.31c.37,0,.73-.12,1.06-.37,.25-.19,.41-.41,.49-.68,.05-.18,.08-.51,.08-1v-.41Z"/><path d="M341.1,104.75h-2.06v-3.97c0-.84-.04-1.38-.13-1.63-.09-.25-.23-.44-.43-.57-.2-.14-.44-.21-.71-.21-.36,0-.68,.1-.96,.29s-.48,.45-.58,.78c-.1,.32-.16,.92-.16,1.79v3.52h-2.06v-7.78h1.91v1.14c.68-.88,1.53-1.32,2.56-1.32,.45,0,.87,.08,1.25,.25,.38,.16,.66,.37,.85,.63,.19,.25,.33,.54,.4,.86,.08,.32,.11,.78,.11,1.38v4.83Z"/><path d="M294.16,128.75v-10.74h2.17v10.74h-2.17Z"/><path d="M305.3,128.75h-2.06v-3.97c0-.84-.04-1.38-.13-1.63-.09-.25-.23-.44-.43-.57-.2-.14-.44-.21-.71-.21-.36,0-.68,.1-.96,.29s-.48,.45-.58,.78c-.1,.32-.16,.92-.16,1.79v3.52h-2.06v-7.78h1.91v1.14c.68-.88,1.53-1.32,2.56-1.32,.45,0,.87,.08,1.25,.25,.38,.16,.66,.37,.85,.63,.19,.25,.33,.54,.4,.86,.08,.32,.11,.78,.11,1.38v4.83Z"/><path d="M314.37,128.75h-1.91v-1.14c-.32,.44-.69,.78-1.12,.99-.43,.22-.87,.33-1.31,.33-.89,0-1.66-.36-2.3-1.08-.64-.72-.96-1.73-.96-3.01s.31-2.32,.93-3.01,1.4-1.03,2.35-1.03c.87,0,1.62,.36,2.26,1.08v-3.87h2.06v10.74Zm-5.49-4.06c0,.83,.12,1.43,.34,1.8,.33,.54,.8,.81,1.39,.81,.47,0,.88-.2,1.21-.6,.33-.4,.5-1,.5-1.81,0-.89-.16-1.54-.48-1.93-.32-.39-.73-.59-1.24-.59s-.9,.19-1.23,.58c-.33,.39-.5,.97-.5,1.74Z"/><path d="M315.77,124.75c0-.68,.17-1.35,.5-1.98,.34-.64,.81-1.13,1.43-1.46,.62-.34,1.31-.51,2.07-.51,1.18,0,2.14,.38,2.89,1.15s1.13,1.73,1.13,2.9-.38,2.15-1.14,2.93c-.76,.77-1.72,1.16-2.87,1.16-.71,0-1.39-.16-2.04-.48-.65-.32-1.14-.79-1.48-1.42-.34-.62-.5-1.38-.5-2.27Zm2.11,.11c0,.77,.18,1.36,.55,1.77,.37,.41,.82,.62,1.35,.62s.99-.21,1.35-.62c.36-.41,.55-1.01,.55-1.79s-.18-1.35-.55-1.76c-.36-.41-.81-.62-1.35-.62s-.99,.21-1.35,.62c-.37,.41-.55,1-.55,1.77Z"/><path d="M332.34,128.75h-2.06v-3.97c0-.84-.04-1.38-.13-1.63-.09-.25-.23-.44-.43-.57-.2-.14-.44-.21-.71-.21-.36,0-.68,.1-.96,.29s-.48,.45-.58,.78c-.1,.32-.16,.92-.16,1.79v3.52h-2.06v-7.78h1.91v1.14c.68-.88,1.53-1.32,2.56-1.32,.45,0,.87,.08,1.25,.25,.38,.16,.66,.37,.85,.63,.19,.25,.33,.54,.4,.86,.08,.32,.11,.78,.11,1.38v4.83Z"/><path d="M338.78,126.28l2.05,.34c-.26,.75-.68,1.32-1.25,1.72-.57,.39-1.28,.59-2.13,.59-1.35,0-2.35-.44-3-1.33-.51-.71-.77-1.6-.77-2.68,0-1.29,.34-2.3,1.01-3.03,.67-.73,1.53-1.09,2.56-1.09,1.16,0,2.07,.38,2.74,1.15s.99,1.93,.96,3.51h-5.16c.01,.61,.18,1.09,.5,1.42,.32,.34,.71,.51,1.19,.51,.32,0,.59-.09,.81-.26s.39-.46,.5-.85Zm.12-2.08c-.01-.6-.17-1.05-.46-1.36s-.65-.47-1.07-.47c-.45,0-.82,.16-1.11,.49s-.44,.77-.43,1.33h3.08Z"/><path d="M341.74,126.53l2.07-.31c.09,.4,.27,.7,.53,.91s.64,.31,1.13,.31c.53,0,.93-.1,1.2-.29,.18-.14,.27-.32,.27-.55,0-.16-.05-.29-.15-.39-.1-.1-.33-.19-.69-.27-1.66-.37-2.71-.7-3.16-1-.62-.42-.92-1-.92-1.75,0-.67,.27-1.24,.8-1.7s1.36-.69,2.48-.69,1.86,.17,2.37,.52,.87,.86,1.07,1.54l-1.94,.36c-.08-.3-.24-.53-.47-.7-.23-.16-.56-.24-.99-.24-.54,0-.93,.08-1.16,.23-.16,.11-.23,.25-.23,.42,0,.15,.07,.27,.21,.37,.19,.14,.83,.33,1.92,.58,1.1,.25,1.86,.55,2.3,.92,.43,.37,.64,.88,.64,1.53,0,.71-.3,1.33-.89,1.84s-1.48,.77-2.64,.77c-1.06,0-1.9-.21-2.52-.64-.62-.43-1.02-1.01-1.21-1.75Z"/><path d="M350.66,119.92v-1.9h2.06v1.9h-2.06Zm0,8.83v-7.78h2.06v7.78h-2.06Z"/><path d="M356.22,123.35l-1.87-.34c.21-.75,.57-1.31,1.08-1.67s1.27-.54,2.29-.54c.92,0,1.6,.11,2.05,.33s.77,.49,.95,.83c.18,.33,.28,.95,.28,1.84l-.02,2.4c0,.68,.03,1.19,.1,1.51,.07,.33,.19,.67,.37,1.04h-2.04c-.05-.14-.12-.34-.2-.61-.04-.12-.06-.2-.07-.24-.35,.34-.73,.6-1.13,.77-.4,.17-.83,.26-1.28,.26-.8,0-1.43-.22-1.89-.65-.46-.43-.69-.98-.69-1.65,0-.44,.1-.83,.31-1.18,.21-.34,.5-.61,.88-.79,.38-.18,.92-.34,1.64-.48,.96-.18,1.63-.35,2-.51v-.21c0-.4-.1-.68-.29-.85-.2-.17-.56-.25-1.11-.25-.37,0-.65,.07-.86,.22s-.37,.4-.5,.76Zm2.75,1.67c-.26,.09-.68,.19-1.25,.31s-.94,.24-1.12,.36c-.27,.19-.4,.43-.4,.73s.11,.54,.32,.75,.49,.31,.82,.31c.37,0,.73-.12,1.06-.37,.25-.19,.41-.41,.49-.68,.05-.18,.08-.51,.08-1v-.41Z"/><path d="M294.19,152.75v-10.74h3.24l1.95,7.32,1.93-7.32h3.25v10.74h-2.01v-8.45l-2.13,8.45h-2.09l-2.12-8.45v8.45h-2.01Z"/><path d="M308.09,147.35l-1.87-.34c.21-.75,.57-1.31,1.08-1.67s1.27-.54,2.29-.54c.92,0,1.6,.11,2.05,.33s.77,.49,.95,.83c.18,.33,.28,.95,.28,1.84l-.02,2.4c0,.68,.03,1.19,.1,1.51,.07,.33,.19,.67,.37,1.04h-2.04c-.05-.14-.12-.34-.2-.61-.04-.12-.06-.2-.07-.24-.35,.34-.73,.6-1.13,.77-.4,.17-.83,.26-1.28,.26-.8,0-1.43-.22-1.89-.65-.46-.43-.69-.98-.69-1.65,0-.44,.1-.83,.31-1.18,.21-.34,.5-.61,.88-.79,.38-.18,.92-.34,1.64-.48,.96-.18,1.63-.35,2-.51v-.21c0-.4-.1-.68-.29-.85-.2-.17-.56-.25-1.11-.25-.37,0-.65,.07-.86,.22s-.37,.4-.5,.76Zm2.75,1.67c-.26,.09-.68,.19-1.25,.31s-.94,.24-1.12,.36c-.27,.19-.4,.43-.4,.73s.11,.54,.32,.75,.49,.31,.82,.31c.37,0,.73-.12,1.06-.37,.25-.19,.41-.41,.49-.68,.05-.18,.08-.51,.08-1v-.41Z"/><path d="M314.74,152.75v-10.74h2.06v10.74h-2.06Z"/><path d="M320.3,147.35l-1.87-.34c.21-.75,.57-1.31,1.08-1.67s1.27-.54,2.29-.54c.92,0,1.6,.11,2.05,.33s.77,.49,.95,.83c.18,.33,.28,.95,.28,1.84l-.02,2.4c0,.68,.03,1.19,.1,1.51,.07,.33,.19,.67,.37,1.04h-2.04c-.05-.14-.12-.34-.2-.61-.04-.12-.06-.2-.07-.24-.35,.34-.73,.6-1.13,.77-.4,.17-.83,.26-1.28,.26-.8,0-1.43-.22-1.89-.65-.46-.43-.69-.98-.69-1.65,0-.44,.1-.83,.31-1.18,.21-.34,.5-.61,.88-.79,.38-.18,.92-.34,1.64-.48,.96-.18,1.63-.35,2-.51v-.21c0-.4-.1-.68-.29-.85-.2-.17-.56-.25-1.11-.25-.37,0-.65,.07-.86,.22s-.37,.4-.5,.76Zm2.75,1.67c-.26,.09-.68,.19-1.25,.31s-.94,.24-1.12,.36c-.27,.19-.4,.43-.4,.73s.11,.54,.32,.75,.49,.31,.82,.31c.37,0,.73-.12,1.06-.37,.25-.19,.41-.41,.49-.68,.05-.18,.08-.51,.08-1v-.41Z"/><path d="M325.98,144.98h2.19l1.86,5.52,1.82-5.52h2.13l-2.75,7.49-.49,1.35c-.18,.45-.35,.8-.52,1.04-.16,.24-.35,.43-.56,.58-.21,.15-.47,.26-.78,.35-.31,.08-.66,.12-1.05,.12s-.78-.04-1.17-.12l-.18-1.61c.32,.06,.61,.1,.87,.1,.48,0,.83-.14,1.06-.42s.41-.64,.53-1.07l-2.96-7.8Z"/><path d="M334.42,150.53l2.07-.31c.09,.4,.27,.7,.53,.91s.64,.31,1.13,.31c.53,0,.93-.1,1.2-.29,.18-.14,.27-.32,.27-.55,0-.16-.05-.29-.15-.39-.1-.1-.33-.19-.69-.27-1.66-.37-2.71-.7-3.16-1-.62-.42-.92-1-.92-1.75,0-.67,.27-1.24,.8-1.7s1.36-.69,2.48-.69,1.86,.17,2.37,.52,.87,.86,1.07,1.54l-1.94,.36c-.08-.3-.24-.53-.47-.7-.23-.16-.56-.24-.99-.24-.54,0-.93,.08-1.16,.23-.16,.11-.23,.25-.23,.42,0,.15,.07,.27,.21,.37,.19,.14,.83,.33,1.92,.58,1.1,.25,1.86,.55,2.3,.92,.43,.37,.64,.88,.64,1.53,0,.71-.3,1.33-.89,1.84s-1.48,.77-2.64,.77c-1.06,0-1.9-.21-2.52-.64-.62-.43-1.02-1.01-1.21-1.75Z"/><path d="M343.34,143.92v-1.9h2.06v1.9h-2.06Zm0,8.83v-7.78h2.06v7.78h-2.06Z"/><path d="M348.9,147.35l-1.87-.34c.21-.75,.57-1.31,1.08-1.67s1.27-.54,2.29-.54c.92,0,1.6,.11,2.05,.33s.77,.49,.95,.83c.18,.33,.28,.95,.28,1.84l-.02,2.4c0,.68,.03,1.19,.1,1.51,.07,.33,.19,.67,.37,1.04h-2.04c-.05-.14-.12-.34-.2-.61-.04-.12-.06-.2-.07-.24-.35,.34-.73,.6-1.13,.77-.4,.17-.83,.26-1.28,.26-.8,0-1.43-.22-1.89-.65-.46-.43-.69-.98-.69-1.65,0-.44,.1-.83,.31-1.18,.21-.34,.5-.61,.88-.79,.38-.18,.92-.34,1.64-.48,.96-.18,1.63-.35,2-.51v-.21c0-.4-.1-.68-.29-.85-.2-.17-.56-.25-1.11-.25-.37,0-.65,.07-.86,.22s-.37,.4-.5,.76Zm2.75,1.67c-.26,.09-.68,.19-1.25,.31s-.94,.24-1.12,.36c-.27,.19-.4,.43-.4,.73s.11,.54,.32,.75,.49,.31,.82,.31c.37,0,.73-.12,1.06-.37,.25-.19,.41-.41,.49-.68,.05-.18,.08-.51,.08-1v-.41Z"/><path d="M294.22,176.75v-10.74h3.48c1.32,0,2.18,.05,2.58,.16,.62,.16,1.13,.51,1.54,1.05,.42,.54,.62,1.24,.62,2.09,0,.66-.12,1.21-.36,1.66s-.54,.8-.91,1.06c-.37,.26-.74,.43-1.12,.51-.52,.1-1.27,.15-2.25,.15h-1.41v4.05h-2.17Zm2.17-8.92v3.05h1.19c.85,0,1.43-.06,1.71-.17,.29-.11,.51-.29,.68-.53,.16-.24,.25-.52,.25-.83,0-.39-.11-.71-.34-.97s-.52-.41-.87-.48c-.26-.05-.78-.07-1.56-.07h-1.05Z"/><path d="M306.11,166.02v3.95c.66-.78,1.46-1.16,2.38-1.16,.47,0,.9,.09,1.28,.26s.67,.4,.86,.67c.19,.27,.32,.58,.4,.91,.07,.33,.11,.85,.11,1.55v4.56h-2.06v-4.11c0-.82-.04-1.33-.12-1.55s-.22-.39-.41-.52c-.2-.13-.45-.19-.74-.19-.34,0-.65,.08-.92,.25-.27,.17-.47,.42-.59,.75-.12,.33-.19,.83-.19,1.48v3.9h-2.06v-10.74h2.06Z"/><path d="M313.07,167.92v-1.9h2.06v1.9h-2.06Zm0,8.83v-7.78h2.06v7.78h-2.06Z"/><path d="M317.09,176.75v-10.74h2.06v10.74h-2.06Z"/><path d="M321.11,167.92v-1.9h2.06v1.9h-2.06Zm0,8.83v-7.78h2.06v7.78h-2.06Z"/><path d="M325.07,168.98h1.92v1.14c.25-.39,.59-.71,1.01-.95,.43-.24,.9-.37,1.41-.37,.9,0,1.67,.35,2.3,1.06s.94,1.69,.94,2.96-.32,2.31-.95,3.03c-.64,.72-1.4,1.08-2.31,1.08-.43,0-.82-.09-1.17-.26-.35-.17-.72-.46-1.1-.88v3.92h-2.06v-10.74Zm2.04,3.76c0,.87,.17,1.52,.52,1.94,.35,.42,.77,.63,1.27,.63s.88-.19,1.19-.57,.48-1.01,.48-1.89c0-.82-.16-1.42-.49-1.82s-.73-.59-1.22-.59-.92,.19-1.25,.58c-.33,.39-.5,.96-.5,1.73Z"/><path d="M334.08,168.98h1.92v1.14c.25-.39,.59-.71,1.01-.95,.43-.24,.9-.37,1.41-.37,.9,0,1.67,.35,2.3,1.06s.94,1.69,.94,2.96-.32,2.31-.95,3.03c-.64,.72-1.4,1.08-2.31,1.08-.43,0-.82-.09-1.17-.26-.35-.17-.72-.46-1.1-.88v3.92h-2.06v-10.74Zm2.04,3.76c0,.87,.17,1.52,.52,1.94,.35,.42,.77,.63,1.27,.63s.88-.19,1.19-.57,.48-1.01,.48-1.89c0-.82-.16-1.42-.49-1.82s-.73-.59-1.22-.59-.92,.19-1.25,.58c-.33,.39-.5,.96-.5,1.73Z"/><path d="M343.15,167.92v-1.9h2.06v1.9h-2.06Zm0,8.83v-7.78h2.06v7.78h-2.06Z"/><path d="M354.25,176.75h-2.06v-3.97c0-.84-.04-1.38-.13-1.63-.09-.25-.23-.44-.43-.57-.2-.14-.44-.21-.71-.21-.36,0-.68,.1-.96,.29s-.48,.45-.58,.78c-.1,.32-.16,.92-.16,1.79v3.52h-2.06v-7.78h1.91v1.14c.68-.88,1.53-1.32,2.56-1.32,.45,0,.87,.08,1.25,.25,.38,.16,.66,.37,.85,.63,.19,.25,.33,.54,.4,.86,.08,.32,.11,.78,.11,1.38v4.83Z"/><path d="M360.69,174.28l2.05,.34c-.26,.75-.68,1.32-1.25,1.72-.57,.39-1.28,.59-2.13,.59-1.35,0-2.35-.44-3-1.33-.51-.71-.77-1.6-.77-2.68,0-1.29,.34-2.3,1.01-3.03,.67-.73,1.53-1.09,2.56-1.09,1.16,0,2.07,.38,2.74,1.15s.99,1.93,.96,3.51h-5.16c.01,.61,.18,1.09,.5,1.42,.32,.34,.71,.51,1.19,.51,.32,0,.59-.09,.81-.26s.39-.46,.5-.85Zm.12-2.08c-.01-.6-.17-1.05-.46-1.36s-.65-.47-1.07-.47c-.45,0-.82,.16-1.11,.49s-.44,.77-.43,1.33h3.08Z"/><path d="M363.65,174.53l2.07-.31c.09,.4,.27,.7,.53,.91s.64,.31,1.13,.31c.53,0,.93-.1,1.2-.29,.18-.14,.27-.32,.27-.55,0-.16-.05-.29-.15-.39-.1-.1-.33-.19-.69-.27-1.66-.37-2.71-.7-3.16-1-.62-.42-.92-1-.92-1.75,0-.67,.27-1.24,.8-1.7s1.36-.69,2.48-.69,1.86,.17,2.37,.52,.87,.86,1.07,1.54l-1.94,.36c-.08-.3-.24-.53-.47-.7-.23-.16-.56-.24-.99-.24-.54,0-.93,.08-1.16,.23-.16,.11-.23,.25-.23,.42,0,.15,.07,.27,.21,.37,.19,.14,.83,.33,1.92,.58,1.1,.25,1.86,.55,2.3,.92,.43,.37,.64,.88,.64,1.53,0,.71-.3,1.33-.89,1.84s-1.48,.77-2.64,.77c-1.06,0-1.9-.21-2.52-.64-.62-.43-1.02-1.01-1.21-1.75Z"/><path d="M293.67,197.26l2.11-.21c.13,.71,.38,1.23,.77,1.56,.39,.33,.91,.5,1.57,.5,.7,0,1.22-.15,1.58-.44,.35-.29,.53-.64,.53-1.04,0-.25-.07-.47-.22-.65-.15-.18-.41-.33-.78-.46-.25-.09-.83-.24-1.74-.47-1.16-.29-1.98-.64-2.45-1.06-.66-.59-.99-1.31-.99-2.16,0-.55,.16-1.06,.47-1.53,.31-.48,.76-.84,1.34-1.09,.58-.25,1.29-.37,2.11-.37,1.35,0,2.36,.3,3.04,.89,.68,.59,1.04,1.38,1.07,2.37l-2.17,.1c-.09-.55-.29-.95-.6-1.19-.31-.24-.76-.36-1.37-.36s-1.12,.13-1.48,.39c-.23,.17-.34,.39-.34,.67,0,.25,.11,.47,.32,.65,.27,.23,.94,.47,1.99,.72s1.83,.51,2.34,.77c.51,.27,.9,.63,1.19,1.09,.29,.46,.43,1.03,.43,1.71,0,.62-.17,1.19-.51,1.73s-.83,.94-1.45,1.2c-.62,.26-1.4,.39-2.34,.39-1.36,0-2.4-.31-3.13-.94-.73-.63-1.16-1.54-1.3-2.74Z"/><path d="M304.06,191.92v-1.9h2.06v1.9h-2.06Zm0,8.83v-7.78h2.06v7.78h-2.06Z"/><path d="M315.16,200.75h-2.06v-3.97c0-.84-.04-1.38-.13-1.63-.09-.25-.23-.44-.43-.57-.2-.14-.44-.21-.71-.21-.36,0-.68,.1-.96,.29s-.48,.45-.58,.78c-.1,.32-.16,.92-.16,1.79v3.52h-2.06v-7.78h1.91v1.14c.68-.88,1.53-1.32,2.56-1.32,.45,0,.87,.08,1.25,.25,.38,.16,.66,.37,.85,.63,.19,.25,.33,.54,.4,.86,.08,.32,.11,.78,.11,1.38v4.83Z"/><path d="M316.9,201.27l2.35,.29c.04,.27,.13,.46,.27,.56,.2,.15,.5,.22,.92,.22,.54,0,.94-.08,1.21-.24,.18-.11,.32-.28,.41-.52,.06-.17,.09-.49,.09-.94v-1.14c-.62,.84-1.39,1.26-2.33,1.26-1.05,0-1.87-.44-2.48-1.33-.48-.7-.72-1.57-.72-2.61,0-1.3,.31-2.3,.94-2.99,.63-.69,1.41-1.03,2.34-1.03s1.75,.42,2.38,1.27v-1.09h1.93v6.98c0,.92-.08,1.6-.23,2.06-.15,.45-.36,.81-.64,1.07s-.64,.46-1.09,.61c-.46,.15-1.03,.22-1.73,.22-1.32,0-2.25-.23-2.8-.68-.55-.45-.83-1.02-.83-1.72,0-.07,0-.15,0-.25Zm1.84-4.56c0,.83,.16,1.43,.48,1.81,.32,.38,.71,.57,1.18,.57,.5,0,.93-.2,1.28-.59,.35-.39,.52-.98,.52-1.75s-.17-1.4-.5-1.79-.75-.59-1.26-.59-.9,.19-1.22,.57c-.32,.38-.48,.97-.48,1.75Z"/><path d="M327.64,195.35l-1.87-.34c.21-.75,.57-1.31,1.08-1.67s1.27-.54,2.29-.54c.92,0,1.6,.11,2.05,.33s.77,.49,.95,.83c.18,.33,.28,.95,.28,1.84l-.02,2.4c0,.68,.03,1.19,.1,1.51,.07,.33,.19,.67,.37,1.04h-2.04c-.05-.14-.12-.34-.2-.61-.04-.12-.06-.2-.07-.24-.35,.34-.73,.6-1.13,.77-.4,.17-.83,.26-1.28,.26-.8,0-1.43-.22-1.89-.65-.46-.43-.69-.98-.69-1.65,0-.44,.1-.83,.31-1.18,.21-.34,.5-.61,.88-.79,.38-.18,.92-.34,1.64-.48,.96-.18,1.63-.35,2-.51v-.21c0-.4-.1-.68-.29-.85-.2-.17-.56-.25-1.11-.25-.37,0-.65,.07-.86,.22s-.37,.4-.5,.76Zm2.75,1.67c-.26,.09-.68,.19-1.25,.31s-.94,.24-1.12,.36c-.27,.19-.4,.43-.4,.73s.11,.54,.32,.75,.49,.31,.82,.31c.37,0,.73-.12,1.06-.37,.25-.19,.41-.41,.49-.68,.05-.18,.08-.51,.08-1v-.41Z"/><path d="M334.24,192.98h1.92v1.14c.25-.39,.59-.71,1.01-.95,.43-.24,.9-.37,1.41-.37,.9,0,1.67,.35,2.3,1.06s.94,1.69,.94,2.96-.32,2.31-.95,3.03c-.64,.72-1.4,1.08-2.31,1.08-.43,0-.82-.09-1.17-.26-.35-.17-.72-.46-1.1-.88v3.92h-2.06v-10.74Zm2.04,3.76c0,.87,.17,1.52,.52,1.94,.35,.42,.77,.63,1.27,.63s.88-.19,1.19-.57,.48-1.01,.48-1.89c0-.82-.16-1.42-.49-1.82s-.73-.59-1.22-.59-.92,.19-1.25,.58c-.33,.39-.5,.96-.5,1.73Z"/><path d="M342.83,196.75c0-.68,.17-1.35,.5-1.98,.34-.64,.81-1.13,1.43-1.46,.62-.34,1.31-.51,2.07-.51,1.18,0,2.14,.38,2.89,1.15s1.13,1.73,1.13,2.9-.38,2.15-1.14,2.93c-.76,.77-1.72,1.16-2.87,1.16-.71,0-1.39-.16-2.04-.48-.65-.32-1.14-.79-1.48-1.42-.34-.62-.5-1.38-.5-2.27Zm2.11,.11c0,.77,.18,1.36,.55,1.77,.37,.41,.82,.62,1.35,.62s.99-.21,1.35-.62c.36-.41,.55-1.01,.55-1.79s-.18-1.35-.55-1.76c-.36-.41-.81-.62-1.35-.62s-.99,.21-1.35,.62c-.37,.41-.55,1-.55,1.77Z"/><path d="M354.29,200.75h-2.06v-7.78h1.91v1.11c.33-.52,.62-.87,.88-1.03,.26-.17,.56-.25,.89-.25,.47,0,.92,.13,1.35,.39l-.64,1.79c-.35-.22-.67-.34-.97-.34s-.53,.08-.73,.24-.36,.45-.47,.86c-.11,.42-.17,1.28-.17,2.61v2.4Z"/><path d="M362.51,198.28l2.05,.34c-.26,.75-.68,1.32-1.25,1.72-.57,.39-1.28,.59-2.13,.59-1.35,0-2.35-.44-3-1.33-.51-.71-.77-1.6-.77-2.68,0-1.29,.34-2.3,1.01-3.03,.67-.73,1.53-1.09,2.56-1.09,1.16,0,2.07,.38,2.74,1.15s.99,1.93,.96,3.51h-5.16c.01,.61,.18,1.09,.5,1.42,.32,.34,.71,.51,1.19,.51,.32,0,.59-.09,.81-.26s.39-.46,.5-.85Zm.12-2.08c-.01-.6-.17-1.05-.46-1.36s-.65-.47-1.07-.47c-.45,0-.82,.16-1.11,.49s-.44,.77-.43,1.33h3.08Z"/><path d="M298.55,224.08c-1.17,.69-2.67,1.35-4.49,1.95l-.5-1.2c1.91-.66,3.38-1.29,4.44-1.92l.54,1.17Zm-2.42-9.7h-1.96v-1.27h1.96v-1.08h1.27v1.08h6.39v-1.08h1.27v1.08h2v1.27h-2v7.11h2.46v1.27h-13.83v-1.27h2.43v-7.11Zm7.67,1.62v-1.62h-6.39v1.62h6.39Zm0,2.76v-1.54h-6.39v1.54h6.39Zm0,2.73v-1.51h-6.39v1.51h6.39Zm-.9,1.5c1.29,.39,2.76,1.04,4.42,1.94l-.55,1.17c-1.75-.93-3.2-1.56-4.33-1.9l.46-1.2Z"/><path d="M309.72,219.68l-1.29-.48c1.36-2.21,2.16-4.54,2.37-7.02l1.33,.15c-.2,1.4-.45,2.61-.77,3.65v9.82h-1.27v-6.75l-.38,.63Zm2.46-1.09l-.62-1.19,1.63-.66v-4h1.28v3.51l2.35-.94v-3.22h1.28v2.7l3.03-1.21,.87,.4v5.42c0,.28-.08,.57-.24,.92-.18,.33-.42,.6-.71,.75-.42,.24-1.2,.21-2.29-.09l.08-1.25c.71,.29,1.17,.39,1.41,.3,.17-.08,.29-.19,.39-.35,.11-.19,.15-.48,.15-.81v-3.5l-.08-.13h-.13l-2.47,.99v6.24h-1.28v-5.73l-2.35,.95v5.88c.01,.33,.06,.53,.13,.62,.13,.17,.38,.23,.73,.21h4.56c.45,0,.76-.12,.93-.31,.12-.19,.2-.88,.2-2.02l1.27,.19c-.01,1.12-.06,1.88-.13,2.29-.04,.21-.13,.42-.25,.58-.21,.27-.42,.45-.62,.51s-.52,.09-.96,.09h-5.56c-.39,0-.69-.09-.95-.25-.43-.31-.66-.9-.63-1.69v-5.58l-1.02,.41Z"/></g><circle class="cls-2" cx="280" cy="51" r="6"/><circle class="cls-3" cx="280" cy="75" r="6"/><circle class="cls-1" cx="280" cy="99" r="6"/><circle class="cls-5" cx="280" cy="171" r="6"/><circle class="cls-7" cx="280" cy="147" r="6"/><circle class="cls-8" cx="280" cy="123" r="6"/><circle class="cls-6" cx="280" cy="195" r="6"/><circle class="cls-9" cx="280" cy="219" r="6"/></g></svg>