<?xml version="1.0" encoding="UTF-8"?><svg id="_層_1" xmlns="http://www.w3.org/2000/svg" viewBox="0 0 880 280"><defs><style>.cls-1,.cls-2,.cls-3,.cls-4,.cls-5,.cls-6{fill:none;}.cls-2{stroke:#f88c00;}.cls-2,.cls-3,.cls-4,.cls-5,.cls-6{stroke-miterlimit:10;stroke-width:1.5px;}.cls-3{stroke:#e63158;}.cls-4{stroke:#ba57ae;}.cls-5{stroke:#48c790;}.cls-6{stroke:#38b4e1;}</style></defs><rect class="cls-1" x="-.04" y=".27" width="879.75" height="279.75"/><polyline id="line1" class="cls-3" points="-.24 139.41 30.5 154.5 60.5 105.5 91.5 86.5 121.5 43.5 151.5 62.5 180.5 93.5 212.5 184.5 242.5 133.5 272.5 106.5 302.5 114.5 332.5 133.5 364.5 105.5 395.5 131.5 424.5 121.5 454.5 169.5 485.5 117.5 515.5 111.5 546.5 80.5 574.5 78.5 607.5 106.5 636.5 106.5 667.5 157.5 697.5 129.5 726.5 145.5 758.5 133.5 788.5 90.5 818.5 161.5 849.5 196.5 879.5 209.5"/><polyline id="line2" class="cls-2" points="-.24 192.41 30.5 196.5 60.5 127.5 91.5 126.5 121.5 113.5 151.5 122.5 180.5 133.5 212.5 204.5 242.5 183.5 272.5 156.5 302.5 134.5 332.5 143.5 364.5 155.5 395.5 151.5 424.5 209.5 454.5 214.5 485.5 154.5 515.5 141.5 546.5 144.5 574.5 131.5 607.5 139.5 636.5 180.5 667.5 131.5 697.5 106.5 726.5 95.5 758.5 93.5 788.5 130.5 818.5 131.5 849.5 186.5 879.5 189.5"/><polyline id="line3" class="cls-5" points="-.24 223.41 30.5 230.5 60.5 233.5 91.5 232.5 121.5 232.5 151.5 223.5 180.5 231.5 212.5 232.5 242.5 245.5 272.5 244.5 302.5 231.5 332.5 234.5 364.5 252.5 395.5 258.5 424.5 255.5 454.5 252.5 485.5 255.5 515.5 252.5 546.5 255.5 574.5 242.5 607.5 250.5 636.5 246.5 668.5 254.5 697.5 254.5 726.5 262.5 758.5 248.5 788.5 251.5 818.5 254.5 849.5 248.5 879.5 252.5"/><polyline id="line4" class="cls-6" points="-.24 268.41 30.5 263.5 60.5 266.5 91.5 265.5 121.5 265.5 151.5 256.5 180.5 264.5 212.5 265.5 242.5 258.5 272.5 265.5 302.5 268.5 332.5 262.5 364.5 259.5 395.5 260.5 424.5 259.5 454.5 257.5 485.5 257.5 515.5 257.5 546.5 245.5 574.5 252.5 607.5 253.5 636.5 253.5 668.5 261.5 697.5 260.5 726.5 258.5 758.5 244.5 788.5 257.5 818.5 251.5 849.5 241.5 879.5 248.5"/><polyline id="line5" class="cls-4" points="-.24 272.41 30.5 274.5 60.5 271.5 91.5 270.5 121.5 270.5 151.5 270.5 180.5 269.5 212.5 270.5 242.5 270.5 272.5 271.5 302.5 271.5 332.5 271.5 364.5 270.5 395.5 270.5 424.5 267.5 454.5 268.5 485.5 272.5 515.5 264.5 546.5 269.5 574.5 264.5 607.5 266.5 636.5 250.5 668.5 257.5 697.5 263.5 726.5 251.5 758.5 253.5 788.5 261.5 818.5 258.5 849.5 263.5 879.5 264.5"/></svg>