<?xml version="1.0" encoding="UTF-8" standalone="no"?>
<!DOCTYPE svg PUBLIC "-//W3C//DTD SVG 1.1//EN" "http://www.w3.org/Graphics/SVG/1.1/DTD/svg11.dtd">
<svg width="100%" height="100%" viewBox="0 0 25 25" version="1.1" xmlns="http://www.w3.org/2000/svg" xmlns:xlink="http://www.w3.org/1999/xlink" xml:space="preserve" xmlns:serif="http://www.serif.com/" style="fill-rule:evenodd;clip-rule:evenodd;stroke-linejoin:round;stroke-miterlimit:2;">
    <g id="Layer1" transform="matrix(1,0,0,1,0,1)">
        <g transform="matrix(1,0,0,1,0,-1)">
            <path d="M22.49,14C21.667,14 21,14.667 21,15.49C21,16.704 21,18.364 21,19.294C21,19.684 20.684,20 20.294,20C17.531,20 7.469,20 4.706,20C4.316,20 4,19.684 4,19.294C4,18.364 4,16.704 4,15.49C4,14.667 3.333,14 2.51,14C2.503,14 2.497,14 2.49,14C1.667,14 1,14.667 1,15.49C1,17.155 1,19.835 1,21.503C1,21.9 1.158,22.281 1.439,22.561C1.719,22.842 2.1,23 2.497,23C6.66,23 18.34,23 22.503,23C22.9,23 23.281,22.842 23.561,22.561C23.842,22.281 24,21.9 24,21.503C24,19.835 24,17.155 24,15.49C24,14.667 23.333,14 22.51,14C22.503,14 22.497,14 22.49,14Z" style="fill:rgb(125,151,158);"/>
        </g>
        <g transform="matrix(1,0,0,1,0,-1)">
            <path d="M10.276,7.467C10.397,7.346 10.58,7.309 10.738,7.375C10.897,7.441 11,7.595 11,7.767C11,9.762 11,14.175 11,16.5C11,17.328 11.672,18 12.5,18C13.328,18 14,17.328 14,16.5L14,7.767C14,7.595 14.103,7.441 14.262,7.375C14.42,7.309 14.603,7.346 14.724,7.467C15.207,7.95 15.85,8.593 16.391,9.133C16.671,9.414 17.052,9.572 17.45,9.572C17.847,9.572 18.228,9.414 18.509,9.133C18.509,9.133 18.51,9.132 18.51,9.132C18.792,8.85 18.95,8.469 18.95,8.071C18.95,7.673 18.792,7.292 18.51,7.01C16.965,5.465 14.153,2.653 13.007,1.507C12.727,1.227 12.273,1.227 11.993,1.507C10.846,2.654 8.033,5.467 6.488,7.012C6.207,7.293 6.049,7.674 6.049,8.071C6.049,8.468 6.207,8.849 6.488,9.13C6.489,9.131 6.49,9.132 6.491,9.133C6.772,9.414 7.153,9.572 7.55,9.572C7.948,9.572 8.329,9.414 8.609,9.133C9.15,8.593 9.793,7.95 10.276,7.467Z" style="fill:rgb(125,151,158);"/>
        </g>
    </g>
</svg>
