<svg width="80" height="80" viewBox="0 0 80 80" fill="none" xmlns="http://www.w3.org/2000/svg">
<mask id="mask0_69_9852" style="mask-type:alpha" maskUnits="userSpaceOnUse" x="0" y="0" width="80" height="80">
<rect width="80" height="80" fill="#436672"/>
</mask>
<g mask="url(#mask0_69_9852)">
<path d="M35.3346 55.3354L58.8346 31.8354L54.168 27.1687L35.3346 46.002L25.8346 36.502L21.168 41.1687L35.3346 55.3354ZM40.0013 73.3354C35.3902 73.3354 31.0569 72.4604 27.0013 70.7104C22.9457 68.9604 19.418 66.5854 16.418 63.5854C13.418 60.5854 11.043 57.0576 9.29297 53.002C7.54297 48.9465 6.66797 44.6131 6.66797 40.002C6.66797 35.3909 7.54297 31.0576 9.29297 27.002C11.043 22.9465 13.418 19.4187 16.418 16.4187C19.418 13.4187 22.9457 11.0437 27.0013 9.2937C31.0569 7.5437 35.3902 6.6687 40.0013 6.6687C44.6124 6.6687 48.9457 7.5437 53.0013 9.2937C57.0569 11.0437 60.5846 13.4187 63.5846 16.4187C66.5846 19.4187 68.9596 22.9465 70.7096 27.002C72.4596 31.0576 73.3346 35.3909 73.3346 40.002C73.3346 44.6131 72.4596 48.9465 70.7096 53.002C68.9596 57.0576 66.5846 60.5854 63.5846 63.5854C60.5846 66.5854 57.0569 68.9604 53.0013 70.7104C48.9457 72.4604 44.6124 73.3354 40.0013 73.3354ZM40.0013 66.6687C47.4457 66.6687 53.7513 64.0854 58.918 58.9187C64.0846 53.752 66.668 47.4465 66.668 40.002C66.668 32.5576 64.0846 26.252 58.918 21.0854C53.7513 15.9187 47.4457 13.3354 40.0013 13.3354C32.5569 13.3354 26.2513 15.9187 21.0846 21.0854C15.918 26.252 13.3346 32.5576 13.3346 40.002C13.3346 47.4465 15.918 53.752 21.0846 58.9187C26.2513 64.0854 32.5569 66.6687 40.0013 66.6687Z" fill="#436672"/>
</g>
</svg>
